<svg width="252" height="252" version="1.1" xmlns="http://www.w3.org/2000/svg" desc="Created with imagetracer.js version 1.2.6" ><path fill="rgb(179,179,179)" stroke="rgb(179,179,179)" stroke-width="1" opacity="1" d="M 133.5 81 L 135 81.5 L 135 155.5 L 134 155.5 L 133.5 82 L 61.5 155 L 117 155.5 L 60 156 L 60 154.5 L 133.5 81 Z " /><path fill="rgb(179,179,179)" stroke="rgb(179,179,179)" stroke-width="1" opacity="1" d="M 127.5 98 L 128 173.5 L 127 173.5 L 127.5 98 Z " /><path fill="rgb(179,179,179)" stroke="rgb(179,179,179)" stroke-width="1" opacity="1" d="M 145.5 99 L 202 99.5 L 145.5 100 L 145.5 99 Z " /><path fill="rgb(179,179,179)" stroke="rgb(179,179,179)" stroke-width="1" opacity="1" d="M 183.5 107 L 138.5 153 L 183.5 107 Z " /><path fill="rgb(179,179,179)" stroke="rgb(179,179,179)" stroke-width="1" opacity="1" d="M 92.5 133 L 78.5 148 L 92.5 133 Z " /><path fill="rgb(179,179,179)" stroke="rgb(179,179,179)" stroke-width="1" opacity="1" d="M 48.5 166 L 42.5 173 L 48.5 166 Z " /><path fill="rgb(255,255,255)" stroke="rgb(255,255,255)" stroke-width="1" opacity="0.9921568627450981" d="M 108.5 0 L 144 0.5 L 108.5 1 L 108.5 0 Z " /><path fill="rgb(255,255,255)" stroke="rgb(255,255,255)" stroke-width="1" opacity="0.9921568627450981" d="M 96.5 1 L 105 1.5 L 96.5 2 L 96.5 1 Z " /><path fill="rgb(255,255,255)" stroke="rgb(255,255,255)" stroke-width="1" opacity="0.9921568627450981" d="M 147.5 1 L 156 1.5 L 147.5 2 L 147.5 1 Z " /><path fill="rgb(255,255,255)" stroke="rgb(255,255,255)" stroke-width="1" opacity="0.9921568627450981" d="M 87.5 2 L 94 2.5 L 87.5 3 L 87.5 2 Z " /><path fill="rgb(255,255,255)" stroke="rgb(255,255,255)" stroke-width="1" opacity="0.9921568627450981" d="M 158.5 2 L 165 2.5 L 158.5 3 L 158.5 2 Z " /><path fill="rgb(255,255,255)" stroke="rgb(255,255,255)" stroke-width="1" opacity="0.9921568627450981" d="M 80.5 3 L 86 3.5 L 56.5 9 L 56.5 8 L 80.5 3 Z " /><path fill="rgb(255,255,255)" stroke="rgb(255,255,255)" stroke-width="1" opacity="0.9921568627450981" d="M 166.5 3 L 177.5 4 L 196 8.5 L 192.5 9 L 177.5 5 L 166.5 4 L 166.5 3 Z " /><path fill="rgb(255,255,255)" stroke="rgb(255,255,255)" stroke-width="1" opacity="0.9921568627450981" d="M 52.5 9 L 55 9.5 L 45.5 12 L 45.5 11 L 52.5 9 Z " /><path fill="rgb(255,255,255)" stroke="rgb(255,255,255)" stroke-width="1" opacity="0.9921568627450981" d="M 197.5 9 L 207 11.5 L 204.5 12 L 197.5 10 L 197.5 9 Z " /><path fill="rgb(255,255,255)" stroke="rgb(255,255,255)" stroke-width="1" opacity="0.9921568627450981" d="M 41.5 12 L 44 12.5 Q 29 15.5 21 25.5 Q 14.8 32.8 12.5 44 L 12 41.5 Q 15.9 26.9 26.5 19 L 41.5 12 Z " /><path fill="rgb(255,255,255)" stroke="rgb(255,255,255)" stroke-width="1" opacity="0.9921568627450981" d="M 208.5 12 Q 224.9 15.1 233 26.5 Q 238.4 33.1 240 43.5 L 239 43.5 Q 236.3 28.7 226.5 21 Q 219.8 14.7 208.5 13 L 208.5 12 Z " /><path fill="rgb(255,255,255)" stroke="rgb(255,255,255)" stroke-width="1" opacity="0.9921568627450981" d="M 11.5 45 L 12 47.5 L 9.5 55 L 9 52.5 L 11.5 45 Z " /><path fill="rgb(255,255,255)" stroke="rgb(255,255,255)" stroke-width="1" opacity="0.9921568627450981" d="M 240.5 45 L 243 54.5 L 242 54.5 L 240.5 45 Z " /><path fill="rgb(255,255,255)" stroke="rgb(255,255,255)" stroke-width="1" opacity="0.9921568627450981" d="M 8.5 56 L 9 59.5 L 7 64.5 L 3.5 86 L 3 80.5 L 8.5 56 Z " /><path fill="rgb(255,255,255)" stroke="rgb(255,255,255)" stroke-width="1" opacity="0.9921568627450981" d="M 243.5 56 L 248 74.5 L 249 85.5 L 248 85.5 L 247 74.5 L 243 59.5 L 243.5 56 Z " /><path fill="rgb(255,255,255)" stroke="rgb(255,255,255)" stroke-width="1" opacity="0.9921568627450981" d="M 2.5 87 L 3 93.5 L 2 93.5 L 2.5 87 Z " /><path fill="rgb(255,255,255)" stroke="rgb(255,255,255)" stroke-width="1" opacity="0.9921568627450981" d="M 249.5 87 L 250 93.5 L 249 93.5 L 249.5 87 Z " /><path fill="rgb(255,255,255)" stroke="rgb(255,255,255)" stroke-width="1" opacity="0.9921568627450981" d="M 1.5 96 L 2 104.5 L 1 104.5 L 1.5 96 Z " /><path fill="rgb(255,255,255)" stroke="rgb(255,255,255)" stroke-width="1" opacity="0.9921568627450981" d="M 250.5 96 L 251 104.5 L 250 104.5 L 250.5 96 Z " /><path fill="rgb(255,255,255)" stroke="rgb(255,255,255)" stroke-width="1" opacity="0.9921568627450981" d="M 0.5 108 L 1 143.5 L 0 143.5 L 0.5 108 Z " /><path fill="rgb(255,255,255)" stroke="rgb(255,255,255)" stroke-width="1" opacity="0.9921568627450981" d="M 251.5 108 L 252 143.5 L 251 143.5 L 251.5 108 Z " /><path fill="rgb(255,255,255)" stroke="rgb(255,255,255)" stroke-width="1" opacity="0.9921568627450981" d="M 1.5 147 L 2 155.5 L 1 155.5 L 1.5 147 Z " /><path fill="rgb(255,255,255)" stroke="rgb(255,255,255)" stroke-width="1" opacity="0.9921568627450981" d="M 250.5 147 L 251 155.5 L 250 155.5 L 250.5 147 Z " /><path fill="rgb(255,255,255)" stroke="rgb(255,255,255)" stroke-width="1" opacity="0.9921568627450981" d="M 2.5 158 L 3 164.5 L 2 164.5 L 2.5 158 Z " /><path fill="rgb(255,255,255)" stroke="rgb(255,255,255)" stroke-width="1" opacity="0.9921568627450981" d="M 249.5 158 L 250 164.5 L 249 164.5 L 249.5 158 Z " /><path fill="rgb(255,255,255)" stroke="rgb(255,255,255)" stroke-width="1" opacity="0.9921568627450981" d="M 3.5 166 L 9 195.5 L 8 195.5 L 3 171.5 L 3.5 166 Z " /><path fill="rgb(255,255,255)" stroke="rgb(255,255,255)" stroke-width="1" opacity="0.9921568627450981" d="M 248.5 166 L 249 171.5 L 247.5 177 L 247 172.5 L 248.5 166 Z " /><path fill="rgb(255,255,255)" stroke="rgb(255,255,255)" stroke-width="1" opacity="0.9921568627450981" d="M 246.5 178 L 247 182.5 L 243.5 196 L 243 192.5 L 246.5 178 Z " /><path fill="rgb(255,255,255)" stroke="rgb(255,255,255)" stroke-width="1" opacity="0.9921568627450981" d="M 9.5 197 L 12 206.5 L 11 206.5 L 9.5 197 Z " /><path fill="rgb(255,255,255)" stroke="rgb(255,255,255)" stroke-width="1" opacity="0.9921568627450981" d="M 242.5 197 L 243 199.5 L 240.5 207 L 240 204.5 L 242.5 197 Z " /><path fill="rgb(255,255,255)" stroke="rgb(255,255,255)" stroke-width="1" opacity="0.9921568627450981" d="M 12.5 208 Q 15.5 223 25.5 231 Q 32.8 237.2 44 239.5 L 41.5 240 Q 26.9 236.1 19 225.5 Q 13 218.4 12.5 208 Z " /><path fill="rgb(255,255,255)" stroke="rgb(255,255,255)" stroke-width="1" opacity="0.9921568627450981" d="M 239.5 208 L 240 210.5 Q 236.1 225.1 225.5 233 Q 218.9 238.4 208.5 240 L 208.5 239 Q 223.3 236.3 231 226.5 Q 237.2 219.2 239.5 208 Z " /><path fill="rgb(255,255,255)" stroke="rgb(255,255,255)" stroke-width="1" opacity="0.9921568627450981" d="M 45.5 240 L 55 242.5 L 52.5 243 L 45.5 241 L 45.5 240 Z " /><path fill="rgb(255,255,255)" stroke="rgb(255,255,255)" stroke-width="1" opacity="0.9921568627450981" d="M 204.5 240 L 207 240.5 L 197.5 243 L 197.5 242 L 204.5 240 Z " /><path fill="rgb(255,255,255)" stroke="rgb(255,255,255)" stroke-width="1" opacity="0.9921568627450981" d="M 56.5 243 L 86 248.5 L 80.5 249 L 56.5 244 L 56.5 243 Z " /><path fill="rgb(255,255,255)" stroke="rgb(255,255,255)" stroke-width="1" opacity="0.9921568627450981" d="M 192.5 243 L 196 243.5 L 177.5 248 L 166.5 249 L 166.5 248 L 177.5 247 L 192.5 243 Z " /><path fill="rgb(255,255,255)" stroke="rgb(255,255,255)" stroke-width="1" opacity="0.9921568627450981" d="M 87.5 249 L 94 249.5 L 87.5 250 L 87.5 249 Z " /><path fill="rgb(255,255,255)" stroke="rgb(255,255,255)" stroke-width="1" opacity="0.9921568627450981" d="M 158.5 249 L 165 249.5 L 158.5 250 L 158.5 249 Z " /><path fill="rgb(255,255,255)" stroke="rgb(255,255,255)" stroke-width="1" opacity="0.9921568627450981" d="M 96.5 250 L 105 250.5 L 96.5 251 L 96.5 250 Z " /><path fill="rgb(255,255,255)" stroke="rgb(255,255,255)" stroke-width="1" opacity="0.9921568627450981" d="M 147.5 250 L 156 250.5 L 147.5 251 L 147.5 250 Z " /><path fill="rgb(255,255,255)" stroke="rgb(255,255,255)" stroke-width="1" opacity="0.9921568627450981" d="M 108.5 251 L 144 251.5 L 108.5 252 L 108.5 251 Z " /><path fill="rgb(0,0,0)" stroke="rgb(0,0,0)" stroke-width="1" opacity="0" d="M 0 0 L 108 0.5 L 74.5 4 L 41.5 12 Q 26.9 15.9 19 26.5 Q 2.6 60.1 0.5 108 L 0 0 Z " /><path fill="rgb(0,0,0)" stroke="rgb(0,0,0)" stroke-width="1" opacity="0" d="M 144.5 0 L 252 0 L 252 107.5 L 251 107.5 L 251 96.5 L 250 95.5 L 249 80.5 L 240 41.5 Q 236.1 26.9 225.5 19 L 216.5 14 L 187.5 6 L 164.5 2 L 144.5 1 L 144.5 0 Z " /><path fill="rgb(0,0,0)" stroke="rgb(0,0,0)" stroke-width="1" opacity="0" d="M 0.5 144 L 4 177.5 L 12 210.5 Q 15.9 225.1 26.5 233 Q 60.1 249.4 108 251.5 L 0 252 L 0.5 144 Z " /><path fill="rgb(0,0,0)" stroke="rgb(0,0,0)" stroke-width="1" opacity="0" d="M 251.5 144 L 252 252 L 144 251.5 L 177.5 248 L 210.5 240 Q 225.1 236.1 233 225.5 L 238 216.5 L 246 187.5 L 250 164.5 L 251.5 144 Z " /><path fill="rgb(255,255,255)" stroke="rgb(255,255,255)" stroke-width="1" opacity="1" d="M 105.5 1 L 146.5 1 L 147.5 2 L 157.5 2 L 158.5 3 L 177.5 5 L 216.5 15 Q 225.4 18.6 231 25.5 Q 237.3 33.3 240 44.5 L 249 86.5 L 250 104.5 L 251 105.5 L 251 146.5 L 250 147.5 L 250 157.5 L 249 158.5 L 247 177.5 L 240 207.5 L 234 222.5 L 226.5 231 Q 218.8 237.3 207.5 240 L 165.5 249 L 147.5 250 L 146.5 251 L 105.5 251 L 104.5 250 L 94.5 250 L 93.5 249 L 74.5 247 L 44.5 240 L 29.5 234 L 21 226.5 Q 14.7 218.8 12 207.5 L 3 165.5 L 2 147.5 L 1 146.5 L 1 105.5 L 2 104.5 L 2 94.5 L 3 93.5 L 5 74.5 L 12 44.5 L 18 29.5 L 25.5 21 L 35.5 15 L 55.5 9 L 86.5 3 L 104.5 2 L 105.5 1 Z M 134 81 L 60 155 L 60 156 L 117 156 L 117 156 L 117 148 L 79 148 L 127 99 L 128 174 L 202 99 L 146 99 L 145 100 L 145 107 L 183 108 L 135 155 L 135 82 L 134 81 Z M 145 81 L 145 89 L 213 89 L 220 82 L 145 81 Z M 49 166 L 42 173 L 43 174 L 84 174 L 84 167 L 84 166 L 49 166 Z " /><path fill="rgb(46,46,46)" stroke="rgb(46,46,46)" stroke-width="1" opacity="1" d="M 145 81 L 220 81.5 L 212.5 89 L 146.5 89 Q 143.3 87.1 145 81 Z M 146 82 L 146 88 L 213 88 L 218 83 L 146 82 Z " /><path fill="rgb(46,46,46)" stroke="rgb(46,46,46)" stroke-width="1" opacity="1" d="M 126.5 98 L 89.5 136 L 126.5 98 Z " /><path fill="rgb(46,46,46)" stroke="rgb(46,46,46)" stroke-width="1" opacity="1" d="M 145.5 100 L 146 106 L 185 106.5 L 146.5 107 Q 143.4 105.4 145.5 100 Z " /><path fill="rgb(46,46,46)" stroke="rgb(46,46,46)" stroke-width="1" opacity="1" d="M 200.5 100 L 128.5 173 L 200.5 100 Z " /><path fill="rgb(46,46,46)" stroke="rgb(46,46,46)" stroke-width="1" opacity="1" d="M 107.5 148 L 117 148 L 117 154.5 L 116 154.5 L 116 149 L 107.5 149 L 107.5 148 Z " /><path fill="rgb(46,46,46)" stroke="rgb(46,46,46)" stroke-width="1" opacity="1" d="M 137.5 153 L 134.5 157 L 137.5 153 Z " /><path fill="rgb(46,46,46)" stroke="rgb(46,46,46)" stroke-width="1" opacity="1" d="M 49.5 166 L 84 166.5 L 49.5 167 L 44 172.5 L 84 173.5 L 42.5 174 L 49.5 166 Z " /><path fill="rgb(0,0,0)" stroke="rgb(0,0,0)" stroke-width="1" opacity="1" d="M 133.5 82 L 134.5 157 L 184.5 106 L 146.5 106 L 146 105.5 L 146 100 L 200 100.5 L 128 171.5 L 128 98.5 L 126.5 98 L 78 147.5 L 106.5 148 L 107.5 149 L 116 149 L 116 154.5 L 115.5 155 L 61.5 155 L 61.5 154 Q 63.8 154.8 63 152.5 L 66 151 L 68.5 147 Q 70.8 147.8 70 145.5 L 133.5 82 Z " /><path fill="rgb(0,0,0)" stroke="rgb(0,0,0)" stroke-width="1" opacity="1" d="M 146 82 L 218 82.5 L 212.5 88 L 146 88 L 146 82 Z " /><path fill="rgb(0,0,0)" stroke="rgb(0,0,0)" stroke-width="1" opacity="1" d="M 49.5 167 L 83.5 167 L 84 167.5 L 84 173 L 44 172.5 L 49.5 167 Z " /></svg>