<svg width="2152" height="320" version="1.1" xmlns="http://www.w3.org/2000/svg" desc="Created with imagetracer.js version 1.2.6" ><path fill="rgb(0,0,0)" stroke="rgb(0,0,0)" stroke-width="1" opacity="0" d="M 0 0 L 2151.5 0 L 2152 0.5 L 2152 320 L 0.5 320 L 0 319.5 L 0 0 Z M 384 4 L 90 252 L 314 253 L 315 252 L 315 234 L 316 229 L 315 227 L 162 227 L 356 62 L 357 63 L 357 314 L 382 295 L 649 70 L 652 65 L 428 65 L 427 66 L 427 90 L 581 91 L 388 252 L 385 254 L 385 5 L 384 4 Z M 427 4 L 427 30 L 696 30 L 725 5 L 427 4 Z M 1134 11 L 1134 152 L 1132 152 Q 1133 131 1122 121 L 1114 113 L 1106 109 L 1094 106 L 1078 106 L 1068 108 L 1049 118 Q 1033 131 1025 152 L 1020 170 L 1018 181 L 1018 189 L 1017 190 L 1017 217 L 1018 218 L 1018 228 L 1021 244 L 1027 262 Q 1032 275 1041 285 Q 1051 296 1065 303 L 1082 309 L 1093 310 L 1094 311 L 1115 311 L 1130 308 Q 1145 303 1157 294 Q 1173 281 1182 260 L 1188 242 L 1190 232 L 1190 225 L 1191 224 L 1191 12 L 1191 11 L 1134 11 Z M 846 31 L 845 32 L 826 33 L 801 39 L 778 49 L 759 62 Q 742 76 731 95 L 721 115 L 711 148 L 708 165 L 708 172 L 707 173 L 707 183 L 706 184 L 706 307 L 763 307 L 763 244 L 837 244 L 837 307 L 894 307 L 894 32 L 894 31 L 846 31 Z M 1286 106 L 1264 111 Q 1251 116 1242 124 Q 1227 137 1219 156 L 1212 178 L 1211 189 L 1210 190 L 1210 198 L 1209 199 L 1209 224 L 1210 225 L 1210 235 L 1213 252 Q 1219 274 1231 290 Q 1244 306 1269 311 L 1286 311 Q 1287 309 1292 310 L 1310 301 Q 1318 294 1322 284 Q 1325 276 1324 265 L 1326 266 L 1326 307 L 1383 307 L 1383 195 Q 1380 193 1382 187 L 1380 176 L 1374 158 L 1361 136 Q 1348 119 1328 111 L 1308 106 L 1286 106 Z M 1702 109 L 1687 137 L 1774 308 L 1803 308 L 1702 109 Z M 990 110 L 979 112 L 965 117 L 948 128 L 945 130 Q 931 142 923 161 L 916 182 L 913 199 L 913 207 L 912 208 L 912 307 L 969 307 L 969 208 Q 971 195 978 187 L 989 180 L 996 178 L 1003 178 L 1004 177 L 1004 111 L 1004 110 L 990 110 Z M 1507 113 L 1486 117 L 1472 122 L 1449 137 Q 1433 150 1424 170 L 1419 183 L 1415 205 L 1416 225 L 1419 239 Q 1425 258 1437 273 Q 1448 285 1462 294 Q 1475 302 1493 306 L 1504 307 L 1505 308 L 1595 308 L 1595 191 L 1504 191 L 1514 215 L 1515 216 L 1571 216 L 1571 283 L 1502 283 L 1484 278 L 1466 267 Q 1455 259 1449 248 L 1442 232 L 1439 216 Q 1439 179 1459 162 L 1461 159 Q 1471 149 1485 143 L 1503 138 Q 1505 139 1504 135 L 1595 138 L 1595 114 L 1595 113 L 1507 113 Z M 1934 113 L 1934 243 L 1913 221 Q 1910 222 1911 220 L 1908 218 L 1908 217 L 1864 173 L 1864 171 L 1862 171 Q 1863 168 1861 169 L 1814 120 Q 1811 121 1812 119 L 1810 117 L 1808 117 L 1808 151 L 1870 214 L 1874 219 L 1877 220 L 1877 222 L 1915 260 Q 1917 259 1916 262 L 1919 263 L 1919 265 L 1951 297 L 1951 298 L 1953 298 Q 1952 301 1955 300 L 1956 303 L 1959 304 L 1959 114 L 1959 113 L 1934 113 Z M 1967 113 L 1967 138 L 2086 139 L 1997 264 L 1998 265 L 2027 265 L 2134 115 L 2134 113 L 1967 113 Z M 1674 163 L 1600 308 L 1629 308 L 1688 192 L 1674 163 Z M 1808 177 L 1808 308 L 1809 308 L 1832 308 L 1832 201 L 1820 187 Q 1817 188 1818 186 L 1810 177 L 1808 177 Z M 1982 283 L 1966 307 L 1967 308 L 2136 308 L 2136 284 L 2136 283 L 1982 283 Z M 48 287 L 17 314 L 186 314 L 186 288 L 186 287 L 48 287 Z " /><path fill="rgb(0,0,0)" stroke="rgb(0,0,0)" stroke-width="1" opacity="0" d="M 825.5 95 L 836.5 95 L 837 95.5 L 837 183 L 764.5 183 Q 763.5 183 764 178.5 L 768 157.5 L 775 137.5 Q 783.2 120.2 796.5 108 Q 807.4 97.9 825.5 95 Z " /><path fill="rgb(0,0,0)" stroke="rgb(0,0,0)" stroke-width="1" opacity="0" d="M 1104.5 169 L 1116.5 172 L 1124 177 Q 1129.8 183.9 1133 194.5 L 1134 199.5 L 1134 217.5 Q 1131.3 234.8 1119.5 243 Q 1112.5 249 1097.5 247 Q 1087.6 243.9 1082 236.5 Q 1072.4 224.1 1074 200.5 L 1078 186.5 L 1088.5 174 L 1097.5 170 Q 1103 171.5 1104.5 169 Z " /><path fill="rgb(0,0,0)" stroke="rgb(0,0,0)" stroke-width="1" opacity="0" d="M 1296.5 169 L 1308.5 172 L 1317 178.5 Q 1323.6 186.4 1326 198.5 L 1326 218.5 Q 1323.2 235.2 1311.5 243 L 1303.5 247 L 1289.5 247 Q 1279.6 243.9 1274 236.5 Q 1264.4 224.1 1266 200.5 Q 1268.9 182.9 1280.5 174 L 1289.5 170 Q 1295 171.5 1296.5 169 Z " /><path fill="rgb(0,159,255)" stroke="rgb(0,159,255)" stroke-width="1" opacity="0.9450980392156862" d="M 427.5 5 L 428 29.5 L 427 29.5 L 427.5 5 Z " /><path fill="rgb(0,159,255)" stroke="rgb(0,159,255)" stroke-width="1" opacity="0.9450980392156862" d="M 298.5 76 L 293.5 82 L 271 100.5 L 292.5 114 L 320.5 91 L 318.5 94 L 162 226.5 L 315 227 L 315 251.5 L 314.5 252 L 90.5 252 L 92.5 249 L 271.5 98 L 284 89 Q 282.9 86.3 285.5 87 L 290 84 Q 288.9 81.3 291.5 82 L 298.5 76 Z " /><path fill="rgb(0,159,255)" stroke="rgb(0,159,255)" stroke-width="1" opacity="0.9450980392156862" d="M 331.5 82 L 330.5 84 L 331.5 82 Z " /><path fill="rgb(0,159,255)" stroke="rgb(0,159,255)" stroke-width="1" opacity="0.9450980392156862" d="M 357.5 114 L 358 153 L 384 167 L 384.5 126 L 385.5 254 L 449.5 200 L 454 198 Q 452.9 195.3 455.5 196 L 466 188 Q 464.9 185.3 467.5 186 L 472 182.5 Q 471.3 180.3 473.5 181 L 475 180.5 L 447 204.5 L 470.5 218 L 499.5 193 L 499 194.5 L 497.5 197 L 363.5 310 L 357 314 L 357.5 114 Z " /><path fill="rgb(0,159,255)" stroke="rgb(0,159,255)" stroke-width="1" opacity="0.9450980392156862" d="M 510.5 185 L 509.5 187 L 510.5 185 Z " /><path fill="rgb(0,159,255)" stroke="rgb(0,159,255)" stroke-width="1" opacity="0.9450980392156862" d="M 47.5 287 L 185.5 287 L 186 287.5 L 186 314 L 17 313.5 L 47.5 287 Z " /><path fill="rgb(0,222,255)" stroke="rgb(0,222,255)" stroke-width="1" opacity="0.9803921568627451" d="M 383.5 4 L 385 4.5 L 385 120.5 L 384 120.5 L 383.5 6 L 298.5 78 L 296 77.5 L 299 76.5 L 303.5 71 L 310 67 Q 308.9 64.3 311.5 65 L 323 56 Q 321.9 53.3 324.5 54 L 354.5 28 L 361 24 Q 359.9 21.3 362.5 22 L 380 8 Q 378.9 5.3 381.5 6 L 383.5 4 Z " /><path fill="rgb(0,222,255)" stroke="rgb(0,222,255)" stroke-width="1" opacity="0.9803921568627451" d="M 427.5 4 L 725 4.5 L 695.5 30 L 428.5 30 L 428.5 29 L 694.5 29 L 722 5.5 L 429 5 L 428.5 8 L 427.5 4 Z " /><path fill="rgb(0,222,255)" stroke="rgb(0,222,255)" stroke-width="1" opacity="0.9803921568627451" d="M 1134 11 L 1190.5 11 L 1191 11.5 L 1191 223.5 L 1190 223.5 L 1190 12.5 L 1189.5 12 L 1135 12 L 1135 152.5 L 1131 153 L 1131 141.5 L 1128 131.5 Q 1123 121.5 1114.5 115 L 1100 108.5 L 1102.5 108 Q 1114.8 111.8 1122 120.5 Q 1133 130.9 1132 152 L 1134 151.5 L 1134 11 Z " /><path fill="rgb(0,222,255)" stroke="rgb(0,222,255)" stroke-width="1" opacity="0.9803921568627451" d="M 845.5 31 L 893.5 31 L 894 31.5 L 894 307 L 837 307 L 837 244 L 763 244 L 763 307 L 706 307 L 706.5 183 L 707 306 L 762 306 L 762 243 L 838 243 L 838 306 L 893 306 L 893 32.5 L 892.5 32 L 845.5 32 L 845.5 31 Z " /><path fill="rgb(0,222,255)" stroke="rgb(0,222,255)" stroke-width="1" opacity="0.9803921568627451" d="M 832.5 32 L 844 32.5 L 832.5 33 L 832.5 32 Z " /><path fill="rgb(0,222,255)" stroke="rgb(0,222,255)" stroke-width="1" opacity="0.9803921568627451" d="M 825.5 33 L 831 33.5 Q 778.5 40.5 750 71.5 Q 712.4 110.4 707.5 182 L 707 172.5 L 708 171.5 L 708 164.5 L 711 147.5 L 721 114.5 Q 734.3 82.8 758.5 62 Q 771.4 51.4 787.5 44 L 803.5 38 L 825.5 33 Z " /><path fill="rgb(0,222,255)" stroke="rgb(0,222,255)" stroke-width="1" opacity="0.9803921568627451" d="M 356.5 60 L 358 60.5 L 358 113.5 L 357 113.5 L 357 62.5 L 355.5 62 L 349 67 Q 350.1 69.7 347.5 69 L 330 83.5 L 328.5 86 L 327 85.5 L 321.5 92 L 319 91.5 L 356.5 60 Z " /><path fill="rgb(0,222,255)" stroke="rgb(0,222,255)" stroke-width="1" opacity="0.9803921568627451" d="M 427 65 L 651.5 65 L 652 66.5 L 499.5 195 L 500 193.5 L 501.5 191 L 650 66.5 L 428 66 L 428 88.5 L 428.5 89 L 583.5 89 L 584 91 L 481.5 176 L 481 174.5 L 497.5 160 L 503 157 Q 501.9 154.3 504.5 155 L 527.5 135 L 534 131 Q 532.9 128.3 535.5 129 L 546 121 Q 544.9 118.3 547.5 119 L 581 90.5 L 427 90 L 427 65 Z " /><path fill="rgb(0,222,255)" stroke="rgb(0,222,255)" stroke-width="1" opacity="0.9803921568627451" d="M 278.5 92 L 279.5 94 L 278.5 92 Z " /><path fill="rgb(0,222,255)" stroke="rgb(0,222,255)" stroke-width="1" opacity="0.9803921568627451" d="M 317.5 94 L 316.5 96 L 317.5 94 Z " /><path fill="rgb(0,222,255)" stroke="rgb(0,222,255)" stroke-width="1" opacity="0.9803921568627451" d="M 825.5 94 L 837.5 94 L 838 94.5 L 838 182.5 L 837 182.5 L 837 95.5 L 836.5 95 L 825.5 95 Q 801.7 99.7 789 115.5 Q 769 139 764.5 178 L 764 171.5 L 771 144.5 L 779 127.5 Q 786.9 114.4 798.5 105 Q 809.2 96.7 825.5 94 Z " /><path fill="rgb(0,222,255)" stroke="rgb(0,222,255)" stroke-width="1" opacity="0.9803921568627451" d="M 307.5 101 L 306.5 103 L 307.5 101 Z " /><path fill="rgb(0,222,255)" stroke="rgb(0,222,255)" stroke-width="1" opacity="0.9803921568627451" d="M 1077.5 106 L 1094 106.5 L 1077.5 107 L 1077.5 106 Z " /><path fill="rgb(0,222,255)" stroke="rgb(0,222,255)" stroke-width="1" opacity="0.9803921568627451" d="M 1285.5 106 L 1307.5 106 L 1327.5 111 Q 1348.3 119.2 1361 135.5 Q 1378.9 156.6 1382 192.5 L 1381 192.5 L 1380 180.5 L 1373 157.5 Q 1364.8 138.7 1350.5 126 Q 1338.9 115.1 1321.5 110 L 1307.5 107 L 1285.5 107 L 1285.5 106 Z " /><path fill="rgb(0,222,255)" stroke="rgb(0,222,255)" stroke-width="1" opacity="0.9803921568627451" d="M 1071.5 107 L 1076 107.5 Q 1054.8 111.3 1043 124.5 Q 1025.6 142.6 1020.5 173 L 1020 169.5 Q 1026.8 136.3 1048.5 118 Q 1058.1 110.6 1071.5 107 Z " /><path fill="rgb(0,222,255)" stroke="rgb(0,222,255)" stroke-width="1" opacity="0.9803921568627451" d="M 1095.5 107 L 1099 107.5 L 1095.5 108 L 1095.5 107 Z " /><path fill="rgb(0,222,255)" stroke="rgb(0,222,255)" stroke-width="1" opacity="0.9803921568627451" d="M 1278.5 107 L 1284 107.5 L 1278.5 108 L 1278.5 107 Z " /><path fill="rgb(0,222,255)" stroke="rgb(0,222,255)" stroke-width="1" opacity="0.9803921568627451" d="M 259.5 108 L 258.5 110 L 259.5 108 Z " /><path fill="rgb(0,222,255)" stroke="rgb(0,222,255)" stroke-width="1" opacity="0.9803921568627451" d="M 1273.5 108 L 1277 108.5 Q 1247.4 114.9 1232 135.5 Q 1215.6 155.6 1211.5 188 L 1211 182.5 Q 1217.9 144.9 1241.5 124 Q 1254.2 112.7 1273.5 108 Z " /><path fill="rgb(0,222,255)" stroke="rgb(0,222,255)" stroke-width="1" opacity="0.9803921568627451" d="M 989.5 110 L 998 110.5 L 989.5 111 L 989.5 110 Z " /><path fill="rgb(0,222,255)" stroke="rgb(0,222,255)" stroke-width="1" opacity="0.9803921568627451" d="M 1003.5 110 L 1004 176.5 L 1002.5 178 L 995.5 178 L 988.5 180 L 978 187 L 971 199.5 L 969.5 207 L 969 202.5 Q 972.3 189.8 981.5 183 Q 989.2 176.4 1003 177 L 1003.5 110 Z " /><path fill="rgb(0,222,255)" stroke="rgb(0,222,255)" stroke-width="1" opacity="0.9803921568627451" d="M 983.5 111 L 988 111.5 Q 953.1 117.1 936 140.5 Q 918.8 162.3 914.5 197 L 914 191.5 L 917 177.5 L 923 160.5 Q 930.9 142.4 944.5 130 L 947.5 128 Q 961.4 115.4 983.5 111 Z " /><path fill="rgb(0,222,255)" stroke="rgb(0,222,255)" stroke-width="1" opacity="0.9803921568627451" d="M 384.5 122 L 385 125.5 L 384 125.5 L 384.5 122 Z " /><path fill="rgb(0,222,255)" stroke="rgb(0,222,255)" stroke-width="1" opacity="0.9803921568627451" d="M 1097.5 169 L 1104 169.5 Q 1087.7 170.7 1081 181.5 Q 1072.3 193.3 1074 215.5 L 1076 224.5 L 1080 233.5 L 1087.5 242 Q 1094.3 249.2 1110.5 247 Q 1121.4 243.9 1127 235.5 L 1131 228.5 L 1134 217.5 L 1134 199.5 L 1131 188.5 L 1124 177 L 1116.5 172 L 1111.5 170 L 1105 169.5 L 1111.5 169 Q 1121.4 172.1 1127 179.5 Q 1137.4 192.1 1135 217.5 Q 1132.3 234.3 1121.5 243 L 1110.5 248 L 1097.5 248 L 1089.5 245 L 1082 239 Q 1076.6 232.1 1074 221.5 L 1073 200.5 L 1077 186.5 L 1085.5 175 L 1097.5 169 Z " /><path fill="rgb(0,222,255)" stroke="rgb(0,222,255)" stroke-width="1" opacity="0.9803921568627451" d="M 1289.5 169 L 1296 169.5 Q 1280.1 170.1 1274 180.5 Q 1268 188 1266.5 200 L 1266 195.5 Q 1269 182.5 1277.5 175 L 1289.5 169 Z " /><path fill="rgb(0,222,255)" stroke="rgb(0,222,255)" stroke-width="1" opacity="0.9803921568627451" d="M 1297.5 169 L 1306.5 170 Q 1314.3 173.3 1319 179.5 L 1325 190.5 L 1327 198.5 L 1327 218.5 Q 1324 234.5 1313.5 243 L 1303.5 248 L 1289.5 248 Q 1277.9 244.6 1272 235.5 Q 1263.7 223.3 1265 201.5 L 1266 201.5 Q 1264.2 230.3 1279.5 242 Q 1286.7 249.3 1303.5 247 Q 1314.2 243.2 1320 234.5 L 1326 218.5 L 1326 198.5 Q 1323.2 183.3 1313.5 175 L 1303.5 170 L 1297.5 170 L 1297.5 169 Z " /><path fill="rgb(0,222,255)" stroke="rgb(0,222,255)" stroke-width="1" opacity="0.9803921568627451" d="M 1019.5 174 L 1020 178.5 L 1019 178.5 L 1019.5 174 Z " /><path fill="rgb(0,222,255)" stroke="rgb(0,222,255)" stroke-width="1" opacity="0.9803921568627451" d="M 479.5 175 L 480 176.5 L 474 181.5 L 477.5 177 Q 480 177.7 479.5 175 Z " /><path fill="rgb(0,222,255)" stroke="rgb(0,222,255)" stroke-width="1" opacity="0.9803921568627451" d="M 763.5 179 L 764 182.5 L 763 182.5 L 763.5 179 Z " /><path fill="rgb(0,222,255)" stroke="rgb(0,222,255)" stroke-width="1" opacity="0.9803921568627451" d="M 1018.5 180 L 1019 187.5 L 1018 187.5 L 1018.5 180 Z " /><path fill="rgb(0,222,255)" stroke="rgb(0,222,255)" stroke-width="1" opacity="0.9803921568627451" d="M 471.5 182 L 470.5 184 L 471.5 182 Z " /><path fill="rgb(0,222,255)" stroke="rgb(0,222,255)" stroke-width="1" opacity="0.9803921568627451" d="M 1017.5 189 L 1018 216.5 L 1017 216.5 L 1017.5 189 Z " /><path fill="rgb(0,222,255)" stroke="rgb(0,222,255)" stroke-width="1" opacity="0.9803921568627451" d="M 1210.5 189 L 1211 197.5 L 1210 198.5 L 1209.5 224 L 1209 198.5 L 1210 197.5 L 1210.5 189 Z " /><path fill="rgb(0,222,255)" stroke="rgb(0,222,255)" stroke-width="1" opacity="0.9803921568627451" d="M 1382.5 194 L 1383 307 L 1326 307 L 1326 265.5 L 1324 265 Q 1325.3 276.1 1322 283.5 Q 1317.8 294.3 1309.5 301 Q 1301.6 308.6 1287.5 310 L 1287.5 309 Q 1307.2 306.2 1316 292.5 L 1322 280.5 L 1323 265.5 L 1324.5 264 L 1327 264.5 L 1327 306 L 1382 306 L 1382.5 194 Z " /><path fill="rgb(0,222,255)" stroke="rgb(0,222,255)" stroke-width="1" opacity="0.9803921568627451" d="M 494.5 197 L 493.5 199 L 494.5 197 Z " /><path fill="rgb(0,222,255)" stroke="rgb(0,222,255)" stroke-width="1" opacity="0.9803921568627451" d="M 913.5 198 L 914 205.5 L 913 205.5 L 913.5 198 Z " /><path fill="rgb(0,222,255)" stroke="rgb(0,222,255)" stroke-width="1" opacity="0.9803921568627451" d="M 488.5 202 L 487.5 204 L 488.5 202 Z " /><path fill="rgb(0,222,255)" stroke="rgb(0,222,255)" stroke-width="1" opacity="0.9803921568627451" d="M 912.5 207 L 913 306 L 968 306 L 968 208.5 L 969 208.5 L 969 307 L 912 307 L 912.5 207 Z " /><path fill="rgb(0,222,255)" stroke="rgb(0,222,255)" stroke-width="1" opacity="0.9803921568627451" d="M 1018.5 218 L 1021 238.5 L 1020 238.5 L 1018 227.5 L 1018.5 218 Z " /><path fill="rgb(0,222,255)" stroke="rgb(0,222,255)" stroke-width="1" opacity="0.9803921568627451" d="M 1189.5 225 L 1190 231.5 Q 1182.9 272.4 1156.5 294 L 1138.5 305 L 1123.5 309 L 1123.5 308 Q 1150.9 301.9 1166 283.5 Q 1185.4 261.9 1189.5 225 Z " /><path fill="rgb(0,222,255)" stroke="rgb(0,222,255)" stroke-width="1" opacity="0.9803921568627451" d="M 1210.5 225 L 1211 234.5 L 1210 234.5 L 1210.5 225 Z " /><path fill="rgb(0,222,255)" stroke="rgb(0,222,255)" stroke-width="1" opacity="0.9803921568627451" d="M 315.5 228 L 316 232.5 L 315 232.5 L 315.5 228 Z " /><path fill="rgb(0,222,255)" stroke="rgb(0,222,255)" stroke-width="1" opacity="0.9803921568627451" d="M 1211.5 236 L 1214 251.5 L 1218 264.5 L 1224 277.5 L 1235 293 L 1248.5 303 L 1259.5 308 L 1268.5 310 L 1286 310.5 L 1268.5 311 Q 1243.9 306.1 1231 289.5 Q 1213.8 269.2 1211.5 236 Z " /><path fill="rgb(0,222,255)" stroke="rgb(0,222,255)" stroke-width="1" opacity="0.9803921568627451" d="M 1021.5 240 Q 1028.4 274.6 1051.5 293 Q 1063.7 303.3 1081.5 308 L 1086.5 308 L 1093.5 310 L 1115 310.5 L 1093.5 311 L 1092.5 310 L 1081.5 309 L 1064.5 303 Q 1050.5 296 1041 284.5 Q 1032.4 274.6 1027 261.5 L 1021 243.5 L 1021.5 240 Z " /><path fill="rgb(0,222,255)" stroke="rgb(0,222,255)" stroke-width="1" opacity="0.9803921568627451" d="M 258.5 252 L 314 252.5 L 258.5 253 L 258.5 252 Z " /><path fill="rgb(0,222,255)" stroke="rgb(0,222,255)" stroke-width="1" opacity="0.9803921568627451" d="M 1116.5 309 L 1122 309.5 L 1116.5 310 L 1116.5 309 Z " /><path fill="rgb(0,223,255)" stroke="rgb(0,223,255)" stroke-width="1" opacity="1" d="M 429 5 L 722 5.5 L 694.5 29 L 428 29 L 428 8.5 L 429 5 Z " /><path fill="rgb(0,223,255)" stroke="rgb(0,223,255)" stroke-width="1" opacity="1" d="M 383.5 6 L 384 167 L 358 153 L 358 60.5 L 356.5 60 L 292.5 114 L 271 100.5 L 383.5 6 Z " /><path fill="rgb(0,223,255)" stroke="rgb(0,223,255)" stroke-width="1" opacity="1" d="M 1135 12 L 1189.5 12 L 1190 12.5 L 1190 224.5 L 1187 241.5 L 1181 259.5 Q 1172.8 278.3 1158.5 291 Q 1146.6 301.6 1129.5 307 L 1115.5 310 L 1093.5 310 L 1092.5 309 L 1081.5 308 L 1061.5 300 Q 1049 292.5 1040 281.5 L 1029 263.5 L 1021 239.5 L 1021 234.5 L 1019 227.5 L 1019 218.5 L 1018 217.5 L 1018 188.5 L 1019 187.5 L 1020 173.5 L 1027 149.5 Q 1033.4 133.9 1044.5 123 Q 1053.9 113.9 1067.5 109 L 1076.5 107 L 1094.5 107 Q 1113.6 110.4 1123 123.5 Q 1132.2 133.6 1131 153 L 1135 152.5 L 1135 12 Z M 1098 169 L 1086 175 L 1077 187 L 1073 201 L 1074 222 Q 1077 232 1082 239 L 1090 245 L 1098 248 L 1111 248 L 1122 243 Q 1132 234 1135 218 Q 1137 192 1127 180 Q 1121 172 1112 169 L 1098 169 Z " /><path fill="rgb(0,223,255)" stroke="rgb(0,223,255)" stroke-width="1" opacity="1" d="M 844.5 32 L 892.5 32 L 893 32.5 L 893 306 L 838 306 L 838 243 L 762 243 L 762 306 L 707 306 L 707 182.5 L 708 181.5 L 708 172.5 L 709 171.5 L 711 152.5 Q 720.9 100.9 751.5 70 Q 767.7 53.7 790.5 44 L 815.5 36 Q 825 36 831.5 33 L 843.5 33 L 844.5 32 Z M 826 94 Q 809 97 799 105 Q 783 118 774 138 L 768 154 L 763 180 L 764 183 L 838 183 L 838 95 L 838 94 L 826 94 Z " /><path fill="rgb(0,223,255)" stroke="rgb(0,223,255)" stroke-width="1" opacity="1" d="M 428 66 L 650 66.5 L 469.5 218 L 447 204.5 L 584 91 L 583.5 89 L 428.5 89 L 428 88.5 L 428 66 Z " /><path fill="rgb(0,223,255)" stroke="rgb(0,223,255)" stroke-width="1" opacity="1" d="M 1284.5 107 L 1307.5 107 L 1327.5 112 Q 1346.6 119.9 1359 134.5 Q 1368.9 146.6 1375 162.5 L 1380 180.5 L 1381 192.5 L 1382 193.5 L 1382 306 L 1327 306 L 1327 264.5 L 1324.5 264 L 1323 265.5 L 1323 276.5 L 1321 283.5 Q 1316.1 295.1 1306.5 302 Q 1293.9 312.4 1268.5 310 L 1259.5 308 L 1248.5 303 L 1235 293 L 1224 277.5 L 1218 264.5 L 1214 251.5 L 1211 235.5 L 1211 225.5 L 1210 224.5 L 1210 198.5 L 1211 197.5 L 1211 188.5 L 1213 177.5 L 1220 155.5 Q 1229.1 135.1 1245.5 122 L 1263.5 112 L 1284.5 107 Z M 1290 169 L 1278 175 L 1270 185 L 1265 202 Q 1264 223 1272 236 Q 1278 245 1290 248 L 1304 248 L 1314 243 Q 1324 234 1327 219 L 1327 199 L 1325 191 L 1319 180 Q 1314 173 1307 170 Q 1300 167 1290 169 Z " /><path fill="rgb(0,223,255)" stroke="rgb(0,223,255)" stroke-width="1" opacity="1" d="M 998.5 110 Q 1003 109.5 1003 110.5 L 1003 177 Q 983 176.7 975 189.5 L 971 196.5 L 968 208.5 L 968 306 L 913 306 L 913 206.5 L 914 205.5 L 914 197.5 L 917 181.5 L 925 158.5 Q 933.5 140 948.5 128 L 969.5 116 L 978.5 113 L 988.5 111 L 997.5 111 L 998.5 110 Z " /><path fill="rgb(251,251,251)" stroke="rgb(251,251,251)" stroke-width="1" opacity="0.9490196078431372" d="M 1701.5 109 L 1803 307.5 L 1774 308 L 1687 136.5 L 1701.5 109 Z " /><path fill="rgb(251,251,251)" stroke="rgb(251,251,251)" stroke-width="1" opacity="0.9490196078431372" d="M 1506.5 113 L 1594.5 113 L 1595 113.5 L 1595 138 L 1504 135 Q 1505.5 138.8 1502.5 138 L 1484.5 143 Q 1470.9 148.9 1461 158.5 L 1459 161.5 Q 1439 178.5 1439 215.5 L 1442 231.5 L 1449 247.5 Q 1455.5 259.1 1465.5 267 L 1483.5 278 L 1501.5 283 L 1571 283 L 1571 216 L 1514.5 216 L 1514 214.5 L 1504 191 L 1595 191 L 1595 308 L 1504.5 308 L 1503.5 307 L 1492.5 306 Q 1474.7 302.3 1461.5 294 Q 1447.6 284.9 1437 272.5 Q 1425.3 258.2 1419 238.5 L 1416 224.5 L 1415 204.5 L 1419 182.5 L 1424 169.5 Q 1433.1 150.1 1448.5 137 L 1471.5 122 L 1485.5 117 L 1506.5 113 Z " /><path fill="rgb(251,251,251)" stroke="rgb(251,251,251)" stroke-width="1" opacity="0.9490196078431372" d="M 1934 113 L 1958.5 113 L 1959 113.5 L 1959 304 L 1956 302.5 L 1954.5 300 Q 1951.9 300.7 1953 298 L 1951 298 L 1951 296.5 L 1919 264.5 L 1919 263 L 1916 261.5 Q 1916.8 259.3 1914.5 260 L 1877 221.5 L 1877 220 L 1874 218.5 L 1870 213.5 L 1808 150.5 L 1808 116.5 L 1809.5 117 L 1812 118.5 Q 1811.3 120.8 1813.5 120 L 1860.5 169 Q 1863.1 168.3 1862 171 L 1864 171 L 1864 172.5 L 1908 216.5 L 1908 218 L 1911 219.5 Q 1910.3 221.8 1912.5 221 L 1933.5 243 L 1934 113 Z " /><path fill="rgb(251,251,251)" stroke="rgb(251,251,251)" stroke-width="1" opacity="0.9490196078431372" d="M 1967 113 L 2133.5 113 L 2134 114.5 L 2027 265 L 1997.5 265 L 1997 263.5 L 2086 138.5 L 1967 138 L 1967 113 Z " /><path fill="rgb(251,251,251)" stroke="rgb(251,251,251)" stroke-width="1" opacity="0.9490196078431372" d="M 1673.5 163 L 1688 191.5 L 1629 308 L 1600 307.5 L 1673.5 163 Z " /><path fill="rgb(251,251,251)" stroke="rgb(251,251,251)" stroke-width="1" opacity="0.9490196078431372" d="M 1808 177 L 1809.5 177 L 1818 185.5 Q 1817.3 187.8 1819.5 187 L 1832 200.5 L 1832 308 L 1808.5 308 L 1808 307.5 L 1808 177 Z " /><path fill="rgb(251,251,251)" stroke="rgb(251,251,251)" stroke-width="1" opacity="0.9490196078431372" d="M 1982 283 L 2135.5 283 L 2136 283.5 L 2136 308 L 1966.5 308 L 1966 306.5 L 1982 283 Z " /></svg>